<?xml version="1.0" encoding="UTF-8" standalone="no"?>
<!-- Created with Inkscape (http://www.inkscape.org/) -->

<svg
   width="110.7822mm"
   height="33.988194mm"
   viewBox="0 0 110.78221 33.988193"
   version="1.1"
   id="svg1"
   inkscape:version="1.4 (e7c3feb1, 2024-10-09)"
   sodipodi:docname="perturb1.svg"
   xml:space="preserve"
   inkscape:export-filename="perturb1.svg"
   inkscape:export-xdpi="96"
   inkscape:export-ydpi="96"
   xmlns:inkscape="http://www.inkscape.org/namespaces/inkscape"
   xmlns:sodipodi="http://sodipodi.sourceforge.net/DTD/sodipodi-0.dtd"
   xmlns="http://www.w3.org/2000/svg"
   xmlns:svg="http://www.w3.org/2000/svg"><sodipodi:namedview
     id="namedview1"
     pagecolor="#ffffff"
     bordercolor="#000000"
     borderopacity="0.25"
     inkscape:showpageshadow="2"
     inkscape:pageopacity="0.0"
     inkscape:pagecheckerboard="0"
     inkscape:deskcolor="#d1d1d1"
     inkscape:document-units="mm"
     inkscape:zoom="1.9434728"
     inkscape:cx="258.3005"
     inkscape:cy="34.47437"
     inkscape:window-width="1520"
     inkscape:window-height="945"
     inkscape:window-x="0"
     inkscape:window-y="25"
     inkscape:window-maximized="0"
     inkscape:current-layer="layer1"><inkscape:page
       x="0"
       y="0"
       width="110.7822"
       height="33.98819"
       id="page113"
       margin="0"
       bleed="0" /></sodipodi:namedview><defs
     id="defs1" /><g
     inkscape:label="Layer 1"
     inkscape:groupmode="layer"
     id="layer1"
     transform="translate(-27.386415,-307.22437)"><g
       id="g118"
       transform="translate(-119.83044,22.776489)"><circle
         style="opacity:1;fill:#aa0000;stroke:none;stroke-width:1.5;stroke-linecap:round;stroke-dasharray:none"
         id="path115"
         cx="165.3681"
         cy="301.37387"
         r="16.925983" /><path
         id="path115-3"
         style="fill:#ff5555;stroke:none;stroke-width:1.5;stroke-linecap:round;stroke-dasharray:none"
         d="m 155.18123,295.76282 c -2.0241,0.0335 -4.06091,0.36624 -6.12107,1.15445 a 16.925983,16.925983 0 0 0 -0.61805,4.45658 16.925983,16.925983 0 0 0 16.9261,16.92609 16.925983,16.925983 0 0 0 16.9261,-16.92609 16.925983,16.925983 0 0 0 -0.46251,-3.91294 c -9.2754,3.49789 -17.84635,-1.84385 -26.65057,-1.69809 z" /><path
         id="path115-30"
         style="fill:#ffaaaa;stroke:none;stroke-width:1.5;stroke-linecap:round;stroke-dasharray:none"
         d="m 181.60339,306.1565 c -14.81675,-0.0261 -19.69383,3.92967 -30.39194,4.47776 a 16.925983,16.925983 0 0 0 14.15676,7.66568 16.925983,16.925983 0 0 0 16.23518,-12.14344 z" /><path
         style="opacity:1;fill:#999999;stroke:none;stroke-width:1.5;stroke-linecap:round;stroke-dasharray:none"
         d="m 154.72947,287.32102 c -5.47822,4.3488 -7.11825,9.49451 -7.15581,14.49051 l 9.83924,-3.04122 -4.47238,-2.32564 10.19703,-1.96784 -2.32563,-5.18797 z"
         id="path116"
         sodipodi:nodetypes="ccccccc" /><path
         style="opacity:1;fill:#cccccc;stroke:none;stroke-width:1.5;stroke-linecap:round;stroke-dasharray:none"
         d="m 151.85211,312.3739 c 1.6622,2.03122 4.19889,3.6252 6.79803,5.18795 l 6.08244,-4.11459 z"
         id="path118"
         sodipodi:nodetypes="cccc" /></g><path
       style="font-size:15.875px;line-height:0.7;font-family:'Arial Rounded MT Bold';-inkscape-font-specification:'Arial Rounded MT Bold, ';letter-spacing:2.4474px;word-spacing:-0.132291px;fill:#cccccc;stroke-linecap:round"
       d="m 131.27907,333.47928 c 0.25981,0.0118 0.54114,0.0441 0.71933,0.0119 0.49603,0.008 1.48889,-0.0317 1.37511,0.70487 -0.2973,0.69267 -1.28092,0.44232 -1.89652,0.49454 -0.89634,0.26666 -0.8488,-0.41079 -0.7891,-1.10019 0.0931,-0.11408 0.33137,-0.12287 0.59118,-0.1111 z"
       id="path52-9-3-5-3" /><path
       style="font-size:15.875px;line-height:0.7;font-family:'Arial Rounded MT Bold';-inkscape-font-specification:'Arial Rounded MT Bold, ';letter-spacing:2.4474px;word-spacing:-0.132291px;fill:#de8787;stroke-linecap:round"
       d="m 126.26232,331.78585 c -0.007,1.6798 -9.1e-4,3.35918 0.0698,5.03535 0.22717,1.30903 1.6978,1.91492 2.90008,1.70532 2.15286,-0.0746 4.45922,0.32403 6.47506,-0.62477 2.14495,-1.09865 2.80771,-4.29278 1.26814,-6.1159 h -1.87741 c -1.86412,0.63047 -3.92615,0.32346 -5.86579,0.39067 -0.66524,0.11598 -1.40632,-0.0263 -1.97972,-0.39067 z"
       id="path51-25-5-9-0" /><path
       style="font-size:15.875px;line-height:0.7;font-family:'Arial Rounded MT Bold';-inkscape-font-specification:'Arial Rounded MT Bold, ';letter-spacing:2.4474px;word-spacing:-0.132291px;fill:#cccccc;stroke-linecap:round"
       d="m 97.912096,327.55252 c 0.004,1.15409 0.0575,6.53727 0.30282,7.66826 0.48837,1.82479 2.156494,3.2094 4.039044,3.36775 2.23878,0.41631 4.92835,0.0558 6.36137,-1.90221 0.99764,-1.45045 1.01282,-7.4194 0.98185,-9.1338 h -2.79259 c -0.50909,0.23884 -1.05483,0.39992 -1.62057,0.49299 0.008,0.71544 -0.0203,5.65922 -0.27544,6.32829 -0.53409,0.60162 -1.61546,0.5189 -2.21485,0.0879 -0.42512,-0.6576 -0.37637,-5.6723 -0.34882,-6.44405 -0.0298,-0.005 -0.0613,-0.007 -0.0909,-0.0124 -0.55673,-0.0468 -1.0891,-0.21165 -1.58336,-0.45268 z"
       id="path50-6-1-2-9"
       sodipodi:nodetypes="ccccccccccccc" /><path
       style="font-size:15.875px;line-height:0.7;font-family:'Arial Rounded MT Bold';-inkscape-font-specification:'Arial Rounded MT Bold, ';letter-spacing:2.4474px;word-spacing:-0.132291px;fill:#cccccc;stroke-linecap:round"
       d="m 88.108556,331.78585 c 7.2e-4,1.09753 0.0163,2.19688 0.007,3.29179 0.0235,1.12991 -0.18586,2.592 0.971,3.26491 1.09634,0.79269 2.85773,0.31912 3.25355,-1.02112 0.39602,-1.24432 0.0788,-2.57265 0.18552,-3.853 v -1.68258 h -0.68885 c -0.71127,0.67848 -1.92056,0.80695 -2.75073,0.2067 -0.10408,-0.0605 -0.18508,-0.13421 -0.26821,-0.2067 z"
       id="path49-72-5-5-2" /><path
       style="font-size:15.875px;line-height:0.7;font-family:'Arial Rounded MT Bold';-inkscape-font-specification:'Arial Rounded MT Bold, ';letter-spacing:2.4474px;word-spacing:-0.132291px;fill:#cccccc;stroke-linecap:round"
       d="m 67.923746,333.41572 c 0.26427,-0.0399 0.52476,-0.0978 0.77824,-0.19017 0.25206,-0.1226 -0.21589,0.0338 -0.77824,0.19017 z"
       id="path48-80-4-5-7" /><path
       style="font-size:15.875px;line-height:0.7;font-family:'Arial Rounded MT Bold';-inkscape-font-specification:'Arial Rounded MT Bold, ';letter-spacing:2.4474px;word-spacing:-0.132291px;fill:#cccccc;stroke-linecap:round"
       d="m 66.352266,333.48445 c -0.0289,0.33162 0.85707,0.12994 1.57148,-0.0687 -0.51454,0.0778 -1.04185,0.0797 -1.57148,0.0687 z"
       id="path47-0-2-9-2" /><path
       style="font-size:15.875px;line-height:0.7;font-family:'Arial Rounded MT Bold';-inkscape-font-specification:'Arial Rounded MT Bold, ';letter-spacing:2.4474px;word-spacing:-0.132291px;fill:#cccccc;stroke-linecap:round"
       d="m 59.424526,331.78585 c -0.008,1.68113 -0.006,3.36206 0.0698,5.03948 0.22618,1.26673 1.63272,1.88471 2.80964,1.70946 2.22915,-0.0576 4.47764,0.13232 6.69417,-0.1142 1.60471,-0.45113 1.76126,-3.05661 0.16639,-3.62666 -1.39808,-0.42754 -2.87554,-0.0971 -4.30981,-0.20308 -0.69775,0.0962 -1.25686,0.0534 -1.00511,-0.79996 -0.11101,-0.64304 0.89254,-0.18339 1.28003,-0.31419 0.40075,-0.0155 0.81283,-7.4e-4 1.22266,0.008 6e-5,-6.3e-4 -5.8e-4,-9.1e-4 -5.1e-4,-0.002 z"
       id="path46-8-2-1-2" /><path
       style="font-size:15.875px;line-height:0.7;font-family:'Arial Rounded MT Bold';-inkscape-font-specification:'Arial Rounded MT Bold, ';letter-spacing:2.4474px;word-spacing:-0.132291px;fill:#cccccc;stroke-linecap:round"
       d="m 116.83964,327.75819 c -2e-5,1.6e-4 1e-5,3.5e-4 0,5.1e-4 -0.13722,1.28562 0.31568,2.78418 -0.57981,3.88245 -0.87496,1.12912 -2.70131,0.86983 -3.46232,-0.21549 l -0.3974,0.36019 c -0.0111,1.76127 -0.0169,3.52304 0.0765,5.27771 0.31489,1.66155 2.7381,2.27632 3.78323,0.92759 0.89561,-1.09842 0.44293,-2.59723 0.58032,-3.88296 -0.28614,-0.70741 0.47258,-0.34927 0.71262,-0.045 1.18992,1.32656 1.62802,3.15138 3.02772,4.30878 1.33597,1.0113 3.67388,-0.16427 3.37086,-1.90221 -0.38412,-1.39095 -1.15113,-2.65852 -2.07998,-3.75584 0.23603,-0.13127 0.44506,-0.29167 0.63769,-0.46768 -0.64269,0.22309 -1.37048,0.19858 -1.92908,-0.22427 -1.07269,-0.88699 -1.58224,-2.16466 -2.2965,-3.31091 l -1.44333,-0.95291 z"
       id="path45-2-9-1-7" /><path
       style="font-size:15.875px;line-height:0.7;font-family:'Arial Rounded MT Bold';-inkscape-font-specification:'Arial Rounded MT Bold, ';letter-spacing:2.4474px;word-spacing:-0.132291px;fill:#cccccc;stroke-linecap:round"
       d="m 76.886506,327.75819 c -2e-5,1.6e-4 2e-5,3.5e-4 0,5.1e-4 -0.13868,1.28566 0.31885,2.78659 -0.57981,3.884 -0.87718,1.12763 -2.70063,0.8669 -3.46181,-0.21755 l -0.3979,0.3607 c -0.0111,1.76127 -0.0169,3.52304 0.0765,5.27771 0.31662,1.65943 2.73537,2.2767 3.78323,0.92966 0.89878,-1.09756 0.44147,-2.59926 0.58032,-3.88503 -0.28808,-0.75314 0.57865,-0.28174 0.79686,0.0413 0.95732,1.1785 1.50036,2.64174 2.47013,3.80597 0.86751,1.04641 2.64186,1.04613 3.45457,-0.0646 0.76268,-0.84915 0.29011,-2.01379 -0.16898,-2.882 -0.41095,-0.823 -0.91899,-1.59766 -1.51929,-2.29495 0.223,-0.12433 0.424,-0.27315 0.60823,-0.4377 -0.82822,0.24565 -1.79903,0.0229 -2.37453,-0.67127 -0.73311,-0.88012 -1.22328,-1.92997 -1.83193,-2.89957 l -1.43506,-0.94723 z"
       id="path44-5-1-4-9" /><path
       style="font-size:15.875px;line-height:0.7;font-family:'Arial Rounded MT Bold';-inkscape-font-specification:'Arial Rounded MT Bold, ';letter-spacing:2.4474px;word-spacing:-0.132291px;fill:#de8787;stroke-linecap:round"
       d="m 55.984426,326.37067 c -1.00299,0.97982 -2.54368,1.4007 -3.93362,1.39734 -0.33131,0.13039 -1.23356,-0.25342 -1.25367,0.12092 -0.0577,1.22501 0.30756,2.64087 -0.52193,3.69331 -0.99321,1.40132 -3.45234,0.82038 -3.79666,-0.83199 -0.0388,-0.68676 -0.0594,-1.37497 -0.0739,-2.06344 -0.002,1.0325 -0.009,2.06557 -0.016,3.09904 h -0.001 c -3.2e-4,0.0453 2.9e-4,0.0906 0,0.13591 -0.005,0.79967 -0.006,1.59894 0.004,2.39778 7.1e-4,0.0601 7.1e-4,0.12025 0.002,0.18035 0.0122,0.86785 0.0369,1.73506 0.0858,2.60036 0.0215,0.10328 0.0512,0.20246 0.0884,0.29714 0.0372,0.0947 0.0817,0.18463 0.13281,0.27027 0.10214,0.17129 0.2305,0.32435 0.37775,0.45682 0.14725,0.13247 0.31359,0.24477 0.49196,0.33486 0.17837,0.0901 0.3688,0.1579 0.56431,0.20206 0.19381,0.0438 0.39266,0.0638 0.58962,0.0589 0.004,-9e-5 0.007,-4.2e-4 0.0103,-5.2e-4 0.1949,-0.006 0.3876,-0.0357 0.57206,-0.0925 0.004,-10e-4 0.007,-0.002 0.0114,-0.004 0.18511,-0.0582 0.36156,-0.14252 0.52245,-0.2558 0.003,-0.002 0.005,-0.004 0.008,-0.006 0.0747,-0.0532 0.14565,-0.1131 0.21291,-0.1788 0.008,-0.008 0.0159,-0.0158 0.0238,-0.0238 0.0644,-0.0653 0.12492,-0.13651 0.18087,-0.21394 0.003,-0.005 0.007,-0.008 0.0108,-0.0129 0.003,-0.004 0.004,-0.008 0.007,-0.0114 0.0971,-0.12473 0.17789,-0.25468 0.24443,-0.38861 0.004,-0.008 0.008,-0.0162 0.0119,-0.0243 0.0665,-0.13784 0.1193,-0.27934 0.15969,-0.42478 0.0416,-0.14994 0.0709,-0.30351 0.0909,-0.4594 0.0192,-0.14895 0.0295,-0.30024 0.0346,-0.45269 5.8e-4,-0.0169 6e-4,-0.0337 10e-4,-0.0506 0.008,-0.30971 -0.005,-0.62439 -0.0176,-0.93586 v -5.1e-4 -5.2e-4 c -0.0132,-0.32114 -0.0252,-0.63924 -0.0108,-0.94516 0.002,-0.0468 0.0187,-0.0819 0.046,-0.10749 0.0273,-0.0256 0.0653,-0.0418 0.11163,-0.0512 0.0926,-0.0187 0.21768,-0.01 0.35243,0.007 0.13477,0.0164 0.27931,0.0404 0.41083,0.0522 0.13151,0.0118 0.24997,0.0114 0.33279,-0.0212 0.21158,5.1e-4 0.427,-0.0106 0.64337,-0.03 0.0128,-10e-4 0.0254,-10e-4 0.0383,-0.003 0.22237,-0.0211 0.4453,-0.0544 0.66714,-0.0977 1.49216,-0.29112 2.91204,-1.09402 3.44423,-2.58485 0.66269,-1.64042 0.35651,-3.75097 -0.85938,-5.03226 z"
       id="path43-8-5-4-3" /><path
       style="font-size:15.875px;line-height:0.7;font-family:'Arial Rounded MT Bold';-inkscape-font-specification:'Arial Rounded MT Bold, ';letter-spacing:2.4474px;word-spacing:-0.132291px;fill:#cccccc;stroke-linecap:round"
       d="m 130.88787,316.20127 h 0.57723 c 0.46532,0.10397 1.1649,-0.13577 1.46296,0.30851 -0.0973,0.73658 -1.08694,0.43851 -1.59318,0.51004 -0.67942,0.36418 -0.92165,-0.6952 -0.44701,-0.81855 z"
       id="path42-03-8-2-0" /><path
       style="font-size:15.875px;line-height:0.7;font-family:'Arial Rounded MT Bold';-inkscape-font-specification:'Arial Rounded MT Bold, ';letter-spacing:2.4474px;word-spacing:-0.132291px;fill:#cccccc;stroke-linecap:round"
       d="m 51.112886,316.20127 h 0.0997 0.0765 c 0.52466,0.0153 1.49387,-0.0663 1.45107,0.69556 -0.0876,0.81127 -1.17412,0.61782 -1.75596,0.66198 -0.23959,-0.0753 -0.39729,-1.47884 0.12867,-1.35754 z"
       id="path41-2-8-6-9" /><path
       style="font-size:15.875px;line-height:0.7;font-family:'Arial Rounded MT Bold';-inkscape-font-specification:'Arial Rounded MT Bold, ';letter-spacing:2.4474px;word-spacing:-0.132291px;fill:#cccccc;stroke-linecap:round"
       d="m 117.33883,316.14339 c 0.0827,0.007 0.17698,0.0264 0.2837,0.0579 h 0.24857 c 0.49285,0.011 1.61652,-0.12122 1.42782,0.67955 -0.68182,0.53674 -1.66651,0.24283 -2.47634,0.32608 -0.0838,-0.61056 -0.0625,-1.11552 0.51625,-1.0635 z"
       id="path40-3-0-3-0" /><path
       style="font-size:15.875px;line-height:0.7;font-family:'Arial Rounded MT Bold';-inkscape-font-specification:'Arial Rounded MT Bold, ';letter-spacing:2.4474px;word-spacing:-0.132291px;fill:#cccccc;stroke-linecap:round"
       d="m 77.385696,316.14339 c 0.0827,0.007 0.17698,0.0264 0.28371,0.0579 h 0.24856 c 0.49409,0.0134 1.6079,-0.12447 1.43195,0.67593 -0.68016,0.54208 -1.66961,0.24622 -2.48047,0.3297 -0.0838,-0.61056 -0.0625,-1.11552 0.51625,-1.0635 z"
       id="path39-3-4-6-1" /><path
       style="font-size:15.875px;line-height:0.7;font-family:'Arial Rounded MT Bold';-inkscape-font-specification:'Arial Rounded MT Bold, ';letter-spacing:2.4474px;word-spacing:-0.132291px;fill:#44aa00;stroke-linecap:round"
       d="m 86.388766,312.35344 c -1.43193,0.0172 -2.46885,1.74497 -1.70687,2.9931 0.68364,1.23773 2.28721,1.05146 3.48247,1.00718 -0.0408,0.78123 -0.0458,1.56733 -0.0481,2.35386 1.46965,-7.8e-4 2.93936,0.002 4.40904,0.0109 v -2.36265 c 1.38,0.17979 3.48268,0.0428 3.67626,-1.72444 0.16845,-1.22908 -0.94932,-2.43736 -2.20452,-2.2593 -2.53589,-0.0357 -5.07258,-0.007 -7.60832,-0.0186 z"
       id="path38-2-0-9-5" /><path
       style="font-size:15.875px;line-height:0.7;font-family:'Arial Rounded MT Bold';-inkscape-font-specification:'Arial Rounded MT Bold, ';letter-spacing:2.4474px;word-spacing:-0.132291px;fill:#cccccc;stroke-linecap:round"
       d="m 49.324366,312.34466 c -0.60847,-0.0152 -1.20741,0.0202 -1.76372,0.29817 -0.9685,0.46541 -1.27736,1.59752 -1.15187,2.59261 0.005,1.28206 -0.0123,2.56634 -0.0212,3.85041 h 1.02061 c 0.0512,-0.0309 0.097,-0.0669 0.15245,-0.0935 1.11262,-0.55604 2.39615,-0.14136 3.58376,-0.29301 1.12991,-0.0187 2.29461,0.009 3.37189,0.38654 h 2.14198 c 0.0637,-0.12614 0.13636,-0.24469 0.18552,-0.3824 0.86081,-2.13085 0.0936,-5.06099 -2.18953,-5.92677 -1.11459,-0.42577 -2.33183,-0.44636 -3.50935,-0.42685 -0.5938,0.0758 -1.21209,0.0101 -1.82056,-0.005 z"
       id="path37-1-8-1-8" /><path
       style="font-size:15.875px;line-height:0.7;font-family:'Arial Rounded MT Bold';-inkscape-font-specification:'Arial Rounded MT Bold, ';letter-spacing:2.4474px;word-spacing:-0.132291px;fill:#cccccc;stroke-linecap:round"
       d="m 75.284016,312.34207 c -0.85838,-0.005 -1.73718,0.0866 -2.30477,0.80564 -0.84504,0.96444 -0.40246,2.33901 -0.52244,3.49539 0.002,0.81343 -0.005,1.6282 -0.01,2.44275 h 1.00253 c 0.76237,-0.48459 1.79366,-0.3883 2.67374,-0.37672 0.90442,-0.008 1.80927,-0.0165 2.71353,0.005 0.82397,-0.0251 1.68496,0.0688 2.45308,0.37155 h 1.69808 c 1.18815,-1.54178 1.14154,-3.9944 -0.29093,-5.39502 -0.96735,-1.0867 -2.47002,-1.36888 -3.86023,-1.32653 -0.90427,-0.0216 -1.80911,-0.0127 -2.71353,-0.005 -0.26924,-0.004 -0.5531,-0.0159 -0.83923,-0.0176 z"
       id="path36-9-5-0-2" /><path
       style="font-size:15.875px;line-height:0.7;font-family:'Arial Rounded MT Bold';-inkscape-font-specification:'Arial Rounded MT Bold, ';letter-spacing:2.4474px;word-spacing:-0.132291px;fill:#cccccc;stroke-linecap:round"
       d="m 115.23405,312.34156 c -0.85974,-0.005 -1.74036,0.0886 -2.30735,0.81028 -0.83779,0.96678 -0.39722,2.33626 -0.51677,3.49126 0.002,0.81343 -0.005,1.6282 -0.01,2.44275 h 1.00098 c 0.76216,-0.48393 1.79329,-0.38913 2.67322,-0.37672 0.90442,-0.008 1.80927,-0.0165 2.71353,0.005 0.8244,-0.0249 1.68557,0.0689 2.45411,0.37155 h 1.69861 c 1.18901,-1.54228 1.13931,-3.9976 -0.29301,-5.39864 -0.9692,-1.08397 -2.47023,-1.36485 -3.85971,-1.32291 -0.90426,-0.0216 -1.80911,-0.0127 -2.71353,-0.005 -0.26968,-0.004 -0.55368,-0.0165 -0.84026,-0.0181 z"
       id="path35-1-5-4-5" /><path
       style="font-size:15.875px;line-height:0.7;font-family:'Arial Rounded MT Bold';-inkscape-font-specification:'Arial Rounded MT Bold, ';letter-spacing:2.4474px;word-spacing:-0.132291px;fill:#cccccc;stroke-linecap:round"
       d="m 129.54739,312.34052 c -0.62415,-0.0173 -1.24389,-0.003 -1.84382,0.16744 -1.08446,0.36175 -1.58299,1.5631 -1.42472,2.63704 0.002,1.31281 -0.0111,2.62699 -0.0165,3.94085 h 0.98805 c 0.13862,-0.0916 0.2867,-0.17235 0.4532,-0.22789 1.19985,-0.34063 2.48,-0.0579 3.71244,-0.1447 1.00403,-0.0165 2.03647,-0.0631 3.01118,0.22169 0.15373,0.0349 0.29586,0.096 0.4408,0.1509 h 2.10737 c -0.13487,-0.15971 -0.28032,-0.31279 -0.44959,-0.44907 0.23309,-0.45685 0.65621,-1.07932 0.70332,-1.69705 0.36675,-1.89837 -0.90302,-3.92311 -2.8019,-4.35426 -0.97471,-0.28478 -2.00715,-0.23875 -3.01118,-0.22221 -0.61622,0.0434 -1.24448,-0.005 -1.86862,-0.0227 z"
       id="path34-63-9-5-0" /><path
       style="font-size:15.875px;line-height:0.7;font-family:'Arial Rounded MT Bold';-inkscape-font-specification:'Arial Rounded MT Bold, ';letter-spacing:2.4474px;word-spacing:-0.132291px;fill:#cccccc;stroke-linecap:round"
       d="m 66.390506,316.91544 c 0.61683,-6.3e-4 1.23352,0.0126 1.84226,0.0904 0.99826,0.15803 -1.73643,-1.0169 -1.82624,-0.0956 z"
       id="path33-9-5-8-2" /><path
       style="font-size:15.875px;line-height:0.7;font-family:'Arial Rounded MT Bold';-inkscape-font-specification:'Arial Rounded MT Bold, ';letter-spacing:2.4474px;word-spacing:-0.132291px;fill:#cccccc;stroke-linecap:round"
       d="m 67.175986,312.33794 c -2.01284,0.0918 -4.03977,-0.0806 -6.04666,0.0822 -1.24879,0.27033 -1.89417,1.6426 -1.6986,2.83342 0.0128,1.27664 1e-5,2.55468 -0.006,3.83232 l 6.96598,-2.17041 c -0.86122,8.8e-4 -1.7228,0.0338 -2.56418,5.2e-4 -0.12202,-0.59847 0.17896,-0.79747 0.75602,-0.67386 1.45401,-0.0545 2.95278,0.1649 4.37751,-0.15865 1.52157,-0.54589 1.53872,-3.11218 -0.0677,-3.55379 -0.55252,-0.17908 -1.13998,-0.20222 -1.71617,-0.19172 z"
       id="path32-1-7-2-8" /><path
       style="font-size:15.875px;line-height:0.7;font-family:'Arial Rounded MT Bold';-inkscape-font-specification:'Arial Rounded MT Bold, ';letter-spacing:2.4474px;word-spacing:-0.132291px;fill:#cccccc;stroke-linecap:round"
       d="m 107.23816,312.18343 c -0.8116,0.0415 -1.58843,0.47937 -1.84744,1.3224 -0.447,1.386 -0.0885,2.86112 -0.22531,4.28604 -0.0102,0.42445 0.009,0.86038 0.0233,1.29398 h 0.67903 c 0.78662,-0.74287 2.20083,-0.73359 3.02255,0 h 0.70693 c -0.0123,-0.68028 -0.027,-1.35669 0.002,-2.01125 -0.0499,-1.272 0.18516,-2.62961 -0.30437,-3.83439 -0.3989,-0.74339 -1.24513,-1.09828 -2.05672,-1.05678 z"
       id="path31-7-7-1-3" /><path
       style="font-size:15.875px;line-height:0.7;font-family:'Arial Rounded MT Bold';-inkscape-font-specification:'Arial Rounded MT Bold, ';letter-spacing:2.4474px;word-spacing:-0.132291px;fill:#cccccc;stroke-linecap:round"
       d="m 100.21481,312.15759 c -0.11971,-0.005 -0.240773,-5.8e-4 -0.361223,0.0145 -1.412531,0.11616 -2.142611,1.68898 -1.925471,2.96416 0.0431,1.3098 -0.0202,2.63254 -0.016,3.94963 h 0.75396 c 0.31222,-0.30794 0.706671,-0.52477 1.187531,-0.56431 0.642983,-0.0804 1.288753,0.14096 1.757003,0.56431 h 0.74156 c 9e-5,-0.17054 0.006,-0.34296 -0.0119,-0.50798 -0.0607,-1.68611 0.17883,-3.41308 -0.18397,-5.06998 -0.31435,-0.79697 -1.10347,-1.3141 -1.94148,-1.3503 z"
       id="path2-9-3-6-9" /><path
       style="font-size:15.875px;line-height:0.7;font-family:'Arial Rounded MT Bold';-inkscape-font-specification:'Arial Rounded MT Bold, ';letter-spacing:2.4474px;word-spacing:-0.132291px;fill:#d35f5f;stroke-linecap:round"
       d="m 126.26232,328.61085 c -0.007,1.6798 -9.5e-4,3.35918 0.0698,5.03535 0.22717,1.30903 1.6978,1.91492 2.90008,1.70532 2.15286,-0.0746 4.45922,0.32403 6.47506,-0.62477 1.83196,-0.93833 2.57741,-3.40317 1.79834,-5.23895 -0.34219,0.87135 -0.95384,1.6314 -1.79834,2.06395 -2.01584,0.9488 -4.3222,0.55017 -6.47506,0.62477 -1.20228,0.2096 -2.67291,-0.39629 -2.90008,-1.70532 -0.0261,-0.61961 -0.039,-1.23999 -0.0501,-1.86035 z"
       id="path30-6-7-0-9" /><path
       style="font-size:15.875px;line-height:0.7;font-family:'Arial Rounded MT Bold';-inkscape-font-specification:'Arial Rounded MT Bold, ';letter-spacing:2.4474px;word-spacing:-0.132291px;fill:#999999;stroke-linecap:round"
       d="m 97.912096,325.43585 c 0.004,1.15409 0.0575,5.47894 0.30282,6.60993 0.48837,1.82479 2.156494,3.2094 4.039044,3.36775 2.23878,0.41631 4.92835,0.0558 6.36137,-1.90221 0.99764,-1.45045 1.01282,-6.36106 0.98185,-8.07547 h -0.23202 c -0.14834,0.6036 -0.37818,4.36014 -0.74983,4.90048 -1.43302,1.95804 -4.12259,2.31851 -6.36137,1.9022 -1.88256,-0.15835 -3.550674,-4.71796 -4.039044,-6.54275 -0.0187,-0.0863 -0.0289,-0.17346 -0.0455,-0.25993 z"
       id="path29-6-6-8-3"
       sodipodi:nodetypes="ccccccccccc" /><path
       style="font-size:15.875px;line-height:0.7;font-family:'Arial Rounded MT Bold';-inkscape-font-specification:'Arial Rounded MT Bold, ';letter-spacing:2.4474px;word-spacing:-0.132291px;fill:#999999;stroke-linecap:round"
       d="m 88.108556,328.61085 c 7.2e-4,1.09753 0.0163,2.19688 0.007,3.29179 0.0235,1.12991 -0.18586,2.592 0.971,3.26491 1.09634,0.79269 2.85773,0.31912 3.25355,-1.02112 0.39602,-1.24432 0.0788,-2.57265 0.18552,-3.853 v -0.46715 c -0.0209,0.38643 -0.0662,0.77032 -0.18552,1.14515 -0.39582,1.34024 -2.15721,1.81381 -3.25355,1.02112 -1.15686,-0.67291 -0.94746,-2.135 -0.971,-3.26491 3.4e-4,-0.0388 -7.9e-4,-0.0779 -5.1e-4,-0.11679 z"
       id="path28-64-4-4-0" /><path
       style="font-size:15.875px;line-height:0.7;font-family:'Arial Rounded MT Bold';-inkscape-font-specification:'Arial Rounded MT Bold, ';letter-spacing:2.4474px;word-spacing:-0.132291px;fill:#d35f5f;stroke-linecap:round"
       d="m 59.424526,328.61085 c -0.008,1.68113 -0.006,3.36206 0.0698,5.03948 0.22618,1.26673 1.63272,1.88471 2.80964,1.70946 2.22915,-0.0576 4.47764,0.13232 6.69417,-0.1142 1.46832,-0.41279 1.71962,-2.62496 0.53071,-3.43545 -0.15417,0.11468 -0.33116,0.20435 -0.53071,0.26045 -2.21653,0.24652 -4.46502,0.0566 -6.69417,0.1142 -1.17692,0.17525 -2.58346,-0.44273 -2.80964,-1.70946 -0.0281,-0.61964 -0.0413,-1.23993 -0.0522,-1.86035 z"
       id="path27-4-3-7-1" /><path
       style="font-size:15.875px;line-height:0.7;font-family:'Arial Rounded MT Bold';-inkscape-font-specification:'Arial Rounded MT Bold, ';letter-spacing:2.4474px;word-spacing:-0.132291px;fill:#999999;stroke-linecap:round"
       d="m 76.955236,327.35511 c -0.12172,0.0104 -0.17624,0.12065 -0.0682,0.40308 -0.13885,1.28577 0.31845,2.78747 -0.58033,3.88503 -1.04785,1.34704 -3.4666,0.72977 -3.78323,-0.92966 -0.0374,-0.70216 -0.0572,-1.40595 -0.0687,-2.10995 l -0.008,0.007 c -0.0111,1.76127 -0.0169,3.52304 0.0765,5.27772 0.31663,1.65942 2.73538,2.2767 3.78323,0.92966 0.89878,-1.09756 0.44148,-2.59927 0.58033,-3.88504 -0.28808,-0.75314 0.57865,-0.28173 0.79685,0.0413 0.95733,1.17851 1.50036,2.64174 2.47013,3.80597 0.86752,1.04642 2.64186,1.04614 3.45457,-0.0646 0.76268,-0.84914 0.29011,-2.01378 -0.16898,-2.88199 -0.0123,-0.0246 -0.0289,-0.0468 -0.0413,-0.0713 -0.87602,0.87082 -2.44262,0.80985 -3.24425,-0.1571 -0.96977,-1.16423 -1.5128,-2.62746 -2.47013,-3.80597 -0.13638,-0.20192 -0.52577,-0.4618 -0.72864,-0.44442 z"
       id="path26-45-5-8-5" /><path
       style="font-size:15.875px;line-height:0.7;font-family:'Arial Rounded MT Bold';-inkscape-font-specification:'Arial Rounded MT Bold, ';letter-spacing:2.4474px;word-spacing:-0.132291px;fill:#d35f5f;stroke-linecap:round"
       d="m 116.87633,327.35304 c -0.10416,0.0246 -0.14348,0.13987 -0.0362,0.40515 -0.13739,1.28573 0.31529,2.78454 -0.58032,3.88296 -1.04513,1.34873 -3.46834,0.73396 -3.78323,-0.92759 -0.0374,-0.70182 -0.0572,-1.40526 -0.0687,-2.10891 l -0.008,0.006 c -0.0111,1.76127 -0.0169,3.52304 0.0765,5.27771 0.31489,1.66155 2.7381,2.27632 3.78323,0.92759 0.89561,-1.09842 0.44293,-2.59723 0.58032,-3.88296 -0.28614,-0.70742 0.47258,-0.34927 0.71262,-0.045 1.18992,1.32656 1.62802,3.15138 3.02772,4.30878 1.33597,1.0113 3.67388,-0.16427 3.37086,-1.90221 -0.14615,-0.52923 -0.36185,-1.03405 -0.60668,-1.52497 -0.73101,0.66341 -1.93783,0.8777 -2.76418,0.25218 -1.3997,-1.1574 -1.8378,-2.98222 -3.02772,-4.30878 -0.15002,-0.1902 -0.50284,-0.40121 -0.67644,-0.36019 z"
       id="path25-7-4-1-2" /><path
       style="font-size:15.875px;line-height:0.7;font-family:'Arial Rounded MT Bold';-inkscape-font-specification:'Arial Rounded MT Bold, ';letter-spacing:2.4474px;word-spacing:-0.132291px;fill:#d35f5f;stroke-linecap:round"
       d="m 56.924416,324.78214 c -0.0297,0.0894 -0.0455,0.18434 -0.0806,0.2713 -0.69288,1.94099 -2.88984,2.71917 -4.79299,2.71457 -0.33131,0.13039 -1.23357,-0.25342 -1.25367,0.12092 -0.0577,1.22501 0.30808,2.64139 -0.52141,3.69383 -0.99321,1.40132 -3.45286,0.81986 -3.79719,-0.83251 -0.055,-0.97338 -0.0752,-1.94891 -0.0853,-2.9254 -0.002,0.26212 -0.002,0.52388 -0.004,0.786 h -0.002 c -3.5e-4,0.0505 3.2e-4,0.10091 0,0.15141 -0.005,0.78468 -0.005,1.56895 0.004,2.35283 8.7e-4,0.0756 0.002,0.15125 0.003,0.22686 0.0121,0.84921 0.0365,1.69777 0.0837,2.54455 7.2e-4,0.0129 3.4e-4,0.0259 10e-4,0.0388 6e-4,0.003 0.002,0.005 0.003,0.008 0.0208,0.0977 0.0489,0.19167 0.0837,0.28163 9e-4,0.002 0.001,0.005 0.002,0.007 l 5.2e-4,5.2e-4 c 6.8e-4,0.002 10e-4,0.003 0.002,0.005 0.0354,0.0894 0.0777,0.17445 0.12557,0.2558 0.002,0.004 0.005,0.008 0.007,0.0124 0.30676,0.51209 0.84614,0.85844 1.43144,0.99063 0.19551,0.0442 0.39614,0.0643 0.59479,0.0589 0.19866,-0.005 0.39563,-0.0362 0.58343,-0.0946 0.0939,-0.0292 0.18532,-0.0654 0.27389,-0.10852 0.0886,-0.0431 0.17431,-0.0929 0.2558,-0.15038 0.0815,-0.0575 0.15885,-0.1225 0.23151,-0.19482 0.0727,-0.0723 0.14049,-0.15219 0.20257,-0.23977 0.10368,-0.13156 0.18888,-0.269 0.25838,-0.41083 0.0695,-0.14183 0.12321,-0.28828 0.16485,-0.43822 0.0416,-0.14994 0.0709,-0.303 0.0909,-0.45888 v -5.2e-4 c 0.02,-0.15572 0.0313,-0.31387 0.0362,-0.47336 v -5.1e-4 c 0.01,-0.31917 -0.005,-0.64404 -0.0181,-0.96532 -0.0132,-0.32132 -0.0252,-0.63958 -0.0108,-0.94568 v -5.2e-4 -5.1e-4 c 0.003,-0.0459 0.019,-0.08 0.0455,-0.10542 2.6e-4,-2.6e-4 2.5e-4,-8.2e-4 5.1e-4,-10e-4 7.1e-4,-6.6e-4 0.002,-8.6e-4 0.003,-0.002 0.026,-0.0235 0.0617,-0.0388 0.10439,-0.0481 0.003,-6.5e-4 0.006,-0.002 0.009,-0.002 0.0903,-0.0175 0.21106,-0.009 0.34107,0.007 0.27145,0.0325 0.58405,0.0974 0.75137,0.0315 0.21306,5.1e-4 0.42961,-0.0108 0.64751,-0.0305 0.0111,-10e-4 0.022,-0.002 0.0331,-0.003 1.71831,-0.16313 3.50103,-0.96934 4.11241,-2.68201 0.43152,-1.06819 0.45282,-2.33714 0.0801,-3.4463 z"
       id="path24-67-5-7-7" /><path
       style="font-size:15.875px;line-height:0.7;font-family:'Arial Rounded MT Bold';-inkscape-font-specification:'Arial Rounded MT Bold, ';letter-spacing:2.4474px;word-spacing:-0.132291px;fill:#666666;stroke-linecap:round"
       d="m 59.425556,321.53789 c -10e-4,0.24104 1.4e-4,0.48194 -10e-4,0.72296 l 0.005,-0.002 c -9.3e-4,-0.21852 0.003,-0.43732 0.001,-0.65577 -0.004,-0.0216 -0.002,-0.0439 -0.005,-0.0656 z"
       id="path22-7-6-0-3" /><path
       style="font-size:15.875px;line-height:0.7;font-family:'Arial Rounded MT Bold';-inkscape-font-specification:'Arial Rounded MT Bold, ';letter-spacing:2.4474px;word-spacing:-0.132291px;fill:#666666;stroke-linecap:round"
       d="m 97.921916,321.40509 c -0.004,0.2853 -0.0107,0.5708 -0.01,0.85576 h 0.0181 c -10e-4,-0.25815 0.006,-0.51738 -0.002,-0.77463 -0.005,-0.0265 -0.002,-0.0544 -0.006,-0.0811 z"
       id="path21-0-9-4-9" /><path
       style="font-size:15.875px;line-height:0.7;font-family:'Arial Rounded MT Bold';-inkscape-font-specification:'Arial Rounded MT Bold, ';letter-spacing:2.4474px;word-spacing:-0.132291px;fill:#338000;stroke-linecap:round"
       d="m 86.388766,315.52844 c -1.43193,0.0172 -2.46885,1.74497 -1.70687,2.9931 0.14913,0.27 0.34813,0.46215 0.57102,0.61288 0.3208,-0.25435 0.70581,-0.4258 1.13585,-0.43098 2.53575,0.0117 5.07243,-0.0171 7.60832,0.0186 0.51638,-0.0733 1.00328,0.096 1.3932,0.39688 0.42916,-0.27531 0.7429,-0.68799 0.81132,-1.31258 0.16845,-1.22908 -0.94932,-2.43736 -2.20452,-2.2593 -2.53589,-0.0357 -5.07257,-0.007 -7.60832,-0.0186 z"
       id="path17-2-4-6-6" /><path
       style="font-size:15.875px;line-height:0.7;font-family:'Arial Rounded MT Bold';-inkscape-font-specification:'Arial Rounded MT Bold, ';letter-spacing:2.4474px;word-spacing:-0.132291px;fill:#999999;stroke-linecap:round"
       d="m 49.324366,315.51966 c -0.60847,-0.0152 -1.20741,0.0202 -1.76372,0.29817 -0.9685,0.46541 -1.27736,1.59752 -1.15187,2.59261 0.005,1.28206 -0.0123,2.56634 -0.0212,3.85041 h 0.0176 c 3.4e-4,-0.22502 0.004,-0.45052 0.004,-0.67541 -0.12549,-0.99509 0.18337,-2.1272 1.15187,-2.59261 1.11263,-0.55604 2.39667,-0.14136 3.58428,-0.293 1.17752,-0.0195 2.39475,10e-4 3.50934,0.42684 1.13862,0.43177 1.89944,1.37707 2.27015,2.48047 0.69838,-2.10188 -0.0802,-4.82503 -2.27015,-5.65547 -1.11459,-0.42577 -2.33182,-0.44636 -3.50934,-0.42684 -0.59381,0.0758 -1.2121,0.0101 -1.82056,-0.005 z"
       id="path16-1-3-9-4" /><path
       style="font-size:15.875px;line-height:0.7;font-family:'Arial Rounded MT Bold';-inkscape-font-specification:'Arial Rounded MT Bold, ';letter-spacing:2.4474px;word-spacing:-0.132291px;fill:#44aa00;stroke-linecap:round"
       d="m 75.284016,315.51707 c -0.85838,-0.005 -1.73718,0.0866 -2.30477,0.80564 -0.84504,0.96444 -0.40246,2.33901 -0.52244,3.49539 0.001,0.42005 -0.003,0.84087 -0.005,1.26143 0.019,-0.57466 0.12701,-1.12462 0.52761,-1.58182 0.75679,-0.95877 2.06705,-0.80224 3.144,-0.78807 0.90442,-0.008 1.80926,-0.017 2.71353,0.005 1.39021,-0.0423 2.89288,0.23984 3.86023,1.32654 0.36424,0.35614 0.63395,0.78224 0.82165,1.2423 0.57421,-1.47053 0.33672,-3.28469 -0.82165,-4.4173 -0.96735,-1.0867 -2.47002,-1.36888 -3.86023,-1.32654 -0.90427,-0.0216 -1.80911,-0.0126 -2.71353,-0.005 -0.26924,-0.004 -0.5531,-0.0159 -0.83923,-0.0176 z"
       id="path15-1-6-5-9" /><path
       style="font-size:15.875px;line-height:0.7;font-family:'Arial Rounded MT Bold';-inkscape-font-specification:'Arial Rounded MT Bold, ';letter-spacing:2.4474px;word-spacing:-0.132291px;fill:#999999;stroke-linecap:round"
       d="m 115.23405,315.51656 c -0.85974,-0.005 -1.74036,0.0886 -2.30735,0.81028 -0.83779,0.96678 -0.39722,2.33626 -0.51677,3.49126 10e-4,0.42091 -0.003,0.8426 -0.005,1.26401 0.0187,-0.57308 0.12506,-1.1223 0.52193,-1.58027 0.75599,-0.9622 2.06889,-0.80741 3.14761,-0.7922 0.90442,-0.008 1.80927,-0.017 2.71353,0.005 1.38948,-0.0419 2.89051,0.23894 3.85971,1.32292 0.36501,0.35704 0.63574,0.78438 0.82372,1.24592 0.57412,-1.47156 0.33465,-3.28785 -0.82372,-4.42092 -0.9692,-1.08398 -2.47023,-1.36485 -3.85971,-1.32292 -0.90426,-0.0216 -1.80911,-0.0126 -2.71353,-0.005 -0.26968,-0.004 -0.55368,-0.0165 -0.84026,-0.0181 z"
       id="path14-4-3-3-2" /><path
       style="font-size:15.875px;line-height:0.7;font-family:'Arial Rounded MT Bold';-inkscape-font-specification:'Arial Rounded MT Bold, ';letter-spacing:2.4474px;word-spacing:-0.132291px;fill:#999999;stroke-linecap:round"
       d="m 129.54739,315.51552 c -0.62415,-0.0173 -1.24389,-0.003 -1.84382,0.16744 -1.08446,0.36175 -1.58299,1.5631 -1.42472,2.63704 10e-4,0.84698 -0.006,1.69482 -0.0109,2.54248 0.0759,-0.87583 0.56175,-1.71303 1.43557,-2.00452 1.19985,-0.34063 2.48,-0.0579 3.71244,-0.1447 1.00403,-0.0165 2.03647,-0.0626 3.01118,0.22221 1.13435,0.25756 2.03417,1.08878 2.50476,2.11718 0.14765,-0.29903 0.27272,-0.61771 0.29714,-0.93792 0.36675,-1.89837 -0.90302,-3.92311 -2.8019,-4.35426 -0.97471,-0.28478 -2.00715,-0.23875 -3.01118,-0.22221 -0.61622,0.0434 -1.24448,-0.006 -1.86862,-0.0227 z"
       id="path13-3-4-2-3" /><path
       style="font-size:15.875px;line-height:0.7;font-family:'Arial Rounded MT Bold';-inkscape-font-specification:'Arial Rounded MT Bold, ';letter-spacing:2.4474px;word-spacing:-0.132291px;fill:#999999;stroke-linecap:round"
       d="m 67.175986,315.51294 c -2.01284,0.0918 -4.03977,-0.0806 -6.04666,0.0822 -1.24879,0.27033 -1.89417,1.6426 -1.6986,2.83342 0.008,0.79566 5e-4,1.59217 -0.004,2.38848 0.12372,-0.94697 0.72426,-1.8352 1.70222,-2.0469 2.00689,-0.16278 4.03382,0.01 6.04666,-0.0822 0.57619,-0.0105 1.16365,0.0126 1.71617,0.19172 0.15746,0.0433 0.29479,0.11204 0.42117,0.19224 1.15499,-0.78768 1.04773,-2.96344 -0.42117,-3.36724 -0.55252,-0.17908 -1.13998,-0.20222 -1.71617,-0.19172 z"
       id="path12-74-7-9-5" /><path
       style="font-size:15.875px;line-height:0.7;font-family:'Arial Rounded MT Bold';-inkscape-font-specification:'Arial Rounded MT Bold, ';letter-spacing:2.4474px;word-spacing:-0.132291px;fill:#44aa00;stroke-linecap:round"
       d="m 107.23816,315.35843 c -0.8116,0.0415 -1.58843,0.47937 -1.84744,1.3224 -0.447,1.386 -0.0885,2.86112 -0.22531,4.28604 -0.004,0.15663 0.006,0.31843 0.009,0.47749 0.01,-0.53648 0.0492,-1.0697 0.21652,-1.58853 0.51802,-1.68606 3.10636,-1.7524 3.90416,-0.26562 0.22021,0.54196 0.28451,1.11658 0.30334,1.6986 -0.002,-0.34739 -0.014,-0.701 0.001,-1.03921 -0.0499,-1.272 0.18516,-2.62961 -0.30437,-3.83439 -0.3989,-0.74339 -1.24513,-1.09828 -2.05672,-1.05678 z"
       id="path11-43-4-4-9" /><path
       style="font-size:15.875px;line-height:0.7;font-family:'Arial Rounded MT Bold';-inkscape-font-specification:'Arial Rounded MT Bold, ';letter-spacing:2.4474px;word-spacing:-0.132291px;fill:#44aa00;stroke-linecap:round"
       d="m 100.21481,315.33259 c -0.11971,-0.005 -0.240773,-5.8e-4 -0.361223,0.0145 -1.412531,0.11616 -2.142611,1.68898 -1.925471,2.96416 0.0248,0.75295 0.0156,1.5101 0.003,2.26808 0.15789,-1.01533 0.83519,-1.96784 1.922371,-2.05724 0.963613,-0.12041 1.943443,0.42501 2.302703,1.33583 0.11869,0.54202 0.16211,1.09277 0.18346,1.6459 -0.0318,-1.60704 0.16156,-3.24519 -0.18346,-4.8209 -0.31435,-0.79697 -1.10347,-1.3141 -1.94148,-1.3503 z"
       id="path2-7-0-0-1-7" /><path
       style="font-size:15.875px;line-height:0.7;font-family:'Arial Rounded MT Bold';-inkscape-font-specification:'Arial Rounded MT Bold, ';letter-spacing:2.4474px;word-spacing:-0.132291px;fill:#666666;stroke-linecap:round"
       d="m 86.389042,318.70354 c -1.43193,0.0172 -2.469369,1.74446 -1.707389,2.99259 0.68364,1.23773 2.287215,1.05198 3.482475,1.00769 -0.10424,1.99636 -0.03169,4.01778 -0.04909,6.02392 0.0235,1.12991 -0.18586,2.592 0.971,3.26492 1.09634,0.79268 2.858245,0.31859 3.254065,-1.02165 0.39602,-1.24432 0.07877,-2.57213 0.185518,-3.85248 v -4.41316 c 1.38,0.17979 3.482682,0.0428 3.676262,-1.72445 0.16845,-1.22907 -0.949317,-2.43684 -2.204517,-2.25877 -2.53589,-0.0357 -5.072581,-0.007 -7.608321,-0.0186 z"
       id="path146" /><path
       style="font-size:15.875px;line-height:0.7;font-family:'Arial Rounded MT Bold';-inkscape-font-specification:'Arial Rounded MT Bold, ';letter-spacing:2.4474px;word-spacing:-0.132291px;fill:#666666;stroke-linecap:round"
       d="m 49.324121,318.69476 c -0.60847,-0.0152 -1.207407,0.0202 -1.763717,0.29817 -0.9685,0.46541 -1.277357,1.59752 -1.151867,2.59261 0.0117,3.05347 -0.10189,6.11919 0.07028,9.16481 0.34433,1.65237 2.803974,2.23383 3.797184,0.83251 0.82949,-1.05244 0.463765,-2.46882 0.521415,-3.69383 0.0201,-0.37434 0.92236,0.009 1.25367,-0.12092 1.90315,0.005 4.10011,-0.77358 4.79299,-2.71457 0.86081,-2.13084 0.0936,-5.06099 -2.189531,-5.92677 -1.11459,-0.42577 -2.331826,-0.44636 -3.509346,-0.42684 -0.5938,0.0758 -1.212091,0.01 -1.820561,-0.005 z m 1.718758,3.84886 v 5.2e-4 c 0.0217,-7.3e-4 0.04558,0.002 0.07028,0.007 h 0.09922 0.07648 c 0.52467,0.0153 1.494391,-0.0663 1.451591,0.69557 -0.0876,0.81127 -1.174642,0.61781 -1.756482,0.66197 -0.22836,-0.0717 -0.382539,-1.35011 0.05891,-1.36477 z"
       id="path145" /><path
       style="font-size:15.875px;line-height:0.7;font-family:'Arial Rounded MT Bold';-inkscape-font-specification:'Arial Rounded MT Bold, ';letter-spacing:2.4474px;word-spacing:-0.132291px;fill:#666666;stroke-linecap:round"
       d="m 75.283777,318.69166 v 5.2e-4 c -0.85838,-0.005 -1.737179,0.0866 -2.304769,0.80563 -0.84504,0.96444 -0.402469,2.33901 -0.522449,3.49539 0.007,2.57227 -0.06994,5.15429 0.06666,7.72046 0.31663,1.65943 2.735371,2.2767 3.783231,0.92966 0.89877,-1.09756 0.441477,-2.59926 0.580327,-3.88503 -0.28808,-0.75314 0.57865,-0.2817 0.79685,0.0413 0.95733,1.1785 1.500364,2.64174 2.470134,3.80597 0.86751,1.04641 2.641859,1.04612 3.454569,-0.0646 0.76268,-0.84915 0.290108,-2.01378 -0.168982,-2.88199 -0.41095,-0.823 -0.918987,-1.59766 -1.519287,-2.29495 2.20112,-1.22718 2.553657,-4.58569 0.776697,-6.32313 -0.96734,-1.0867 -2.470009,-1.36887 -3.860229,-1.32653 -0.90426,-0.0216 -1.80911,-0.013 -2.71353,-0.005 -0.26924,-0.003 -0.553095,-0.0159 -0.839225,-0.0176 z m 2.041736,3.79873 c 0.0963,0.002 0.210238,0.0216 0.343648,0.061 h 0.248564 c 0.49409,0.0134 1.607904,-0.12447 1.431954,0.67593 -0.68016,0.54208 -1.669609,0.24621 -2.480469,0.32969 -0.0808,-0.58875 -0.06391,-1.07894 0.456303,-1.0666 z"
       id="path144" /><path
       style="font-size:15.875px;line-height:0.7;font-family:'Arial Rounded MT Bold';-inkscape-font-specification:'Arial Rounded MT Bold, ';letter-spacing:2.4474px;word-spacing:-0.132291px;fill:#666666;stroke-linecap:round"
       d="m 115.23431,318.69114 -5.2e-4,5.2e-4 c -0.85974,-0.005 -1.73984,0.0886 -2.30683,0.81028 -0.83779,0.96678 -0.39773,2.33626 -0.51728,3.49126 0.007,2.57227 -0.0694,5.15429 0.0672,7.72046 0.31489,1.66155 2.7381,2.27633 3.78323,0.9276 0.89561,-1.09842 0.44293,-2.59724 0.58032,-3.88297 -0.28614,-0.70741 0.47258,-0.34923 0.71262,-0.045 1.18992,1.32656 1.62802,3.15138 3.02772,4.30878 1.33597,1.0113 3.67388,-0.16427 3.37086,-1.90221 -0.38412,-1.39095 -1.15113,-2.65852 -2.07998,-3.75584 2.20502,-1.22633 2.55294,-4.58879 0.77618,-6.32675 -0.9692,-1.08398 -2.47023,-1.36484 -3.85971,-1.32291 -0.90426,-0.0216 -1.80911,-0.013 -2.71353,-0.005 -0.26968,-0.004 -0.55368,-0.0165 -0.84026,-0.0181 z m 2.04484,3.79925 c 0.0963,0.002 0.20973,0.0216 0.34313,0.061 h 0.24908 c 0.49285,0.011 1.61652,-0.12122 1.42782,0.67955 -0.68182,0.53674 -1.66702,0.24282 -2.47685,0.32607 -0.0808,-0.58875 -0.0634,-1.07894 0.45682,-1.0666 z"
       id="path143" /><path
       style="font-size:15.875px;line-height:0.7;font-family:'Arial Rounded MT Bold';-inkscape-font-specification:'Arial Rounded MT Bold, ';letter-spacing:2.4474px;word-spacing:-0.132291px;fill:#666666;stroke-linecap:round"
       d="m 67.175745,318.68804 c -2.01284,0.0918 -4.03977,-0.0806 -6.04666,0.0822 -1.24879,0.27033 -1.894174,1.6426 -1.698604,2.83342 0.0297,2.95644 -0.07024,5.91903 0.06356,8.87129 0.22619,1.26673 1.633234,1.88522 2.810164,1.70997 2.22914,-0.0576 4.477635,0.13232 6.694165,-0.1142 1.60471,-0.45112 1.760752,-3.05661 0.165882,-3.62666 -1.39808,-0.42755 -2.875545,-0.0971 -4.309815,-0.20308 -0.69775,0.0962 -1.25635,0.0528 -1.00459,-0.80047 -0.11101,-0.64305 0.892029,-0.18339 1.279509,-0.31419 1.18465,-0.0459 2.443472,0.1607 3.572392,-0.25063 1.45697,-0.70868 1.175898,-3.25926 -0.469222,-3.51969 -1.45866,-0.18657 -2.96244,-0.0328 -4.40645,-0.0899 -0.12202,-0.59847 0.178976,-0.79747 0.756026,-0.67386 1.45402,-0.0544 2.953288,0.1649 4.378028,-0.15865 1.52157,-0.54589 1.538217,-3.11219 -0.06821,-3.55379 -0.55253,-0.17908 -1.139984,-0.20223 -1.716174,-0.19172 z"
       id="path142" /><path
       style="font-size:15.875px;line-height:0.7;font-family:'Arial Rounded MT Bold';-inkscape-font-specification:'Arial Rounded MT Bold, ';letter-spacing:2.4474px;word-spacing:-0.132291px;fill:#666666;stroke-linecap:round"
       d="m 129.08049,318.68546 c -0.46583,0.005 -0.92722,0.0449 -1.37717,0.1726 -1.04485,0.34854 -1.54401,1.47627 -1.43764,2.51871 1.3e-4,-0.0205 3.8e-4,-0.041 5.1e-4,-0.0615 0.004,0.06 0.003,0.12047 0.0124,0.17983 0.005,2.99126 -0.0726,5.98901 0.0532,8.9762 0.22717,1.30903 1.69781,1.91492 2.90009,1.70532 2.15286,-0.0746 4.45921,0.32403 6.47505,-0.62476 2.33286,-1.1949 2.91996,-4.87312 0.81856,-6.56498 0.23309,-0.45685 0.6562,-1.07931 0.70331,-1.69705 0.36675,-1.89836 -0.90301,-3.92311 -2.80189,-4.35426 -0.97471,-0.28478 -2.00716,-0.23876 -3.01119,-0.22221 -0.77028,0.0542 -1.55888,-0.0358 -2.33526,-0.0279 z m 1.80713,3.86591 h 0.57722 c 0.46532,0.10397 1.1649,-0.13577 1.46296,0.30851 -0.0973,0.73658 -1.08642,0.43852 -1.59266,0.51005 -0.67942,0.36418 -0.92216,-0.69521 -0.44752,-0.81856 z m 0.20309,4.5744 c 0.30177,-0.005 0.68469,0.0558 0.90743,0.0155 0.49603,0.008 1.48889,-0.0317 1.37511,0.70487 -0.2973,0.69267 -1.2804,0.44232 -1.896,0.49454 -0.89634,0.26665 -0.8488,-0.4108 -0.7891,-1.10019 0.0698,-0.0856 0.22149,-0.11188 0.40256,-0.11472 z"
       id="path141" /><path
       style="font-size:15.875px;line-height:0.7;font-family:'Arial Rounded MT Bold';-inkscape-font-specification:'Arial Rounded MT Bold, ';letter-spacing:2.4474px;word-spacing:-0.132291px;fill:#666666;stroke-linecap:round"
       d="m 100.0342,318.50717 c -0.06019,0.002 -0.120121,0.007 -0.180347,0.015 -1.412541,0.11615 -2.142594,1.68846 -1.925464,2.96364 0.0809,2.4575 -0.238395,4.96336 0.286805,7.38508 0.48837,1.82479 2.156456,3.20941 4.039026,3.36776 2.23878,0.41631 4.92835,0.0558 6.36137,-1.90221 1.3935,-2.02599 0.88097,-4.60809 0.98392,-6.91224 -0.0499,-1.27201 0.18516,-2.6291 -0.30437,-3.83388 -0.7978,-1.48679 -3.38614,-1.42044 -3.90416,0.26562 -0.447,1.38601 -0.0885,2.86112 -0.22531,4.28604 -0.0311,1.28828 0.21085,2.65417 -0.25734,3.88194 -0.53409,0.60161 -1.61547,0.51888 -2.21486,0.0879 -0.60601,-0.93741 -0.23782,-2.13223 -0.35295,-3.18379 -0.0607,-1.68611 0.17884,-3.41307 -0.18396,-5.06997 -0.33681,-0.8539 -1.2194,-1.38677 -2.12236,-1.35083 z"
       id="path58-79-75-6-2" /><path
       style="font-size:15.875px;line-height:0.7;font-family:'Arial Rounded MT Bold';-inkscape-font-specification:'Arial Rounded MT Bold, ';letter-spacing:2.4474px;word-spacing:-0.132291px;fill:#333333;stroke-linecap:round"
       d="m 61.603475,332.19729 c 0.195,0.0205 0.390457,0.0202 0.581877,5.2e-4 z"
       id="path140" /><path
       style="font-size:15.875px;line-height:0.7;font-family:'Arial Rounded MT Bold';-inkscape-font-specification:'Arial Rounded MT Bold, ';letter-spacing:2.4474px;word-spacing:-0.132291px;fill:#333333;stroke-linecap:round"
       d="m 66.581982,328.23578 c -0.11164,0.004 -0.223213,0.007 -0.334863,0.0109 0.0458,0.54671 0.120275,0.74171 0.182935,0.41341 0.0347,-0.18177 0.0886,-0.32162 0.151928,-0.42426 z"
       id="path139" /><path
       style="font-size:15.875px;line-height:0.7;font-family:'Arial Rounded MT Bold';-inkscape-font-specification:'Arial Rounded MT Bold, ';letter-spacing:2.4474px;word-spacing:-0.132291px;fill:#333333;stroke-linecap:round"
       d="m 67.564351,328.21924 c -0.141,-0.003 -0.282216,-5.6e-4 -0.423746,0.002 0.0759,0.13131 0.127601,0.32652 0.130741,0.58653 0.0148,1.21801 0.665016,3.06773 1.088306,3.09593 0.20684,0.0137 0.389153,0.0797 0.405143,0.14728 0.004,0.018 0.01172,0.03 0.01912,0.0413 0.0715,-0.007 0.143047,-0.0132 0.214457,-0.0212 0.038,-0.0192 0.07789,-0.0328 0.12299,-0.0408 1.4882,-0.54672 1.595832,-3.03129 0.04289,-3.58635 -0.52429,-0.16034 -1.059763,-0.21414 -1.599903,-0.22427 z"
       id="path138" /><path
       style="font-size:15.875px;line-height:0.7;font-family:'Arial Rounded MT Bold';-inkscape-font-specification:'Arial Rounded MT Bold, ';letter-spacing:2.4474px;word-spacing:-0.132291px;fill:#333333;stroke-linecap:round"
       d="m 86.389042,318.70354 c -1.43192,0.0172 -2.469379,1.74446 -1.707389,2.99259 0.68364,1.23773 2.287215,1.05146 3.482475,1.00717 -0.10424,1.99636 -0.03159,4.0183 -0.04909,6.02444 0.0158,0.76026 -0.0719,1.67008 0.220142,2.38952 0.14808,-0.0429 0.238745,-0.0905 0.238745,-0.13746 0,-0.0546 0.112043,-0.10284 0.248563,-0.10284 0.37124,0 0.621545,-0.76725 0.943095,-2.88716 0.32732,-2.15793 0.378703,-2.40769 0.807703,-3.95066 0.17798,-0.64016 0.422082,-1.11277 0.577742,-1.11777 0.14912,-0.005 0.268718,-0.16453 0.268718,-0.35708 0,-0.21202 0.110927,-0.34727 0.284737,-0.34727 0.18648,0 0.284737,0.58774 0.284737,1.70429 0,1.1046 0.0998,1.71106 0.28422,1.72186 0.111361,0.007 0.195321,-0.22376 0.252181,-0.67489 v -2.26291 c 0.0331,0.004 0.0684,0.007 0.10232,0.0114 l 0.02222,-0.95137 0.142627,0.96997 c 0.33664,0.0311 0.702901,0.0388 1.066601,0.0114 0.0371,-0.11257 0.0785,-0.18639 0.121957,-0.19689 0.0861,-0.0205 0.154483,0.0371 0.210323,0.16175 0.99093,-0.14284 1.887053,-0.60625 2.010213,-1.73065 0.16845,-1.22907 -0.949317,-2.43684 -2.204517,-2.25877 -2.53589,-0.0357 -5.072581,-0.007 -7.608321,-0.0186 z"
       id="path137" /><path
       style="font-size:15.875px;line-height:0.7;font-family:'Arial Rounded MT Bold';-inkscape-font-specification:'Arial Rounded MT Bold, ';letter-spacing:2.4474px;word-spacing:-0.132291px;fill:#333333;stroke-linecap:round"
       d="m 49.324638,318.69476 c -0.60847,-0.0152 -1.207397,0.0202 -1.763717,0.29817 -0.96849,0.46541 -1.277367,1.59752 -1.151867,2.59261 0.0117,3.05347 -0.102407,6.11919 0.06976,9.16481 0.004,-0.006 0.0091,-0.01 0.01395,-0.015 0.092,-0.12141 0.181034,-0.55983 0.197404,-0.97462 0.0177,-0.44794 0.131193,-0.75448 0.280603,-0.75448 0.16046,0 0.272549,-0.75274 0.308509,-2.07842 0.0196,-0.72156 0.03938,-1.14568 0.06098,-1.28106 0.0216,-0.1354 0.0445,0.0181 0.0708,0.45165 0.0417,0.68697 0.18602,1.28145 0.32091,1.32085 0.13488,0.0394 0.259066,0.2056 0.275436,0.36949 0.0164,0.1639 0.116061,0.3974 0.221691,0.51883 0.14108,0.16217 0.199822,0.0696 0.221692,-0.34933 0.0164,-0.31362 0.124276,-0.57051 0.240296,-0.57051 0.41707,0 1.299145,1.2506 1.299145,1.84226 0,0.34158 0.104488,0.58601 0.251148,0.58601 0.13837,0 0.251664,0.18205 0.251664,0.40463 0,0.2461 0.06559,0.36261 0.234094,0.39481 0.20326,-0.87083 0.02888,-1.84756 0.07028,-2.72645 0.0201,-0.37434 0.92236,0.009 1.25367,-0.12092 1.90315,0.005 4.10011,-0.77358 4.79299,-2.71457 0.86081,-2.13084 0.0936,-5.06099 -2.189531,-5.92677 -1.11459,-0.42577 -2.331826,-0.44636 -3.509346,-0.42684 -0.5938,0.0758 -1.212091,0.0104 -1.820561,-0.005 z m 1.718758,3.84938 c 0.0217,-7.3e-4 0.04506,0.002 0.06976,0.007 h 0.09974 0.07648 c 0.52467,0.0153 1.493884,-0.0663 1.451074,0.69557 -0.0876,0.81127 -1.174125,0.61781 -1.755965,0.66197 -0.22836,-0.0717 -0.382549,-1.35011 0.05891,-1.36477 z"
       id="path136" /><path
       style="font-size:15.875px;line-height:0.7;font-family:'Arial Rounded MT Bold';-inkscape-font-specification:'Arial Rounded MT Bold, ';letter-spacing:2.4474px;word-spacing:-0.132291px;fill:#333333;stroke-linecap:round"
       d="m 75.284294,318.69166 v 5.2e-4 c -0.85839,-0.005 -1.737179,0.0866 -2.304769,0.80563 -0.84505,0.96444 -0.402469,2.33901 -0.522449,3.49539 0.007,2.57227 -0.07004,5.15429 0.06666,7.72046 0.0106,0.0557 0.02397,0.10997 0.03927,0.1633 0.33705,-0.0771 0.410735,-0.32725 0.590145,-1.60765 0.22939,-1.63705 0.523839,-2.27867 1.057299,-2.30477 0.20889,-0.0102 0.310576,-0.25544 0.310576,-0.74724 0,-0.47716 0.0992,-0.7228 0.284737,-0.7059 0.18186,0.0165 0.297811,-0.12981 0.320911,-0.40566 0.0199,-0.23743 0.126221,-0.6391 0.236161,-0.89245 0.16146,-0.37209 0.208847,-0.40669 0.248047,-0.18036 0.0267,0.15413 0.176793,0.29113 0.333313,0.30593 0.15652,0.0142 0.28422,0.13886 0.28422,0.27698 0,0.1569 0.107067,0.24223 0.284737,0.22583 0.17037,-0.0155 0.300845,-0.33207 0.325045,-0.78806 0.0115,-0.21779 0.04398,-0.39253 0.08578,-0.4992 -0.0178,10e-4 -0.03656,8.6e-4 -0.05426,0.003 -0.0808,-0.58875 -0.0639,-1.07894 0.456302,-1.0666 0.0963,0.002 0.210239,0.0216 0.343649,0.061 h 0.248563 c 0.49409,0.0134 1.607904,-0.12447 1.431954,0.67593 -0.23865,0.1902 -0.516039,0.27618 -0.809769,0.31264 0.1393,0.6023 0.24855,1.41176 0.24908,2.08256 3.6e-4,0.45992 0.108931,0.74596 0.287321,0.75396 0.15947,0.008 0.368582,0.25113 0.470772,0.54777 0.1011,0.29357 0.292411,0.53382 0.424781,0.53382 0.13236,0 0.240295,0.31937 0.240295,0.70951 0,0.42776 0.113117,0.72056 0.284737,0.73536 0.18731,0.017 0.295993,-0.45092 0.317293,-1.36891 0.0179,-0.76712 0.123982,-1.63949 0.236162,-1.9389 l 0.204122,-0.54467 0.04857,0.65939 c 0.0298,0.40703 0.15665,0.65991 0.33228,0.65991 0.17456,0 0.284737,0.20194 0.284737,0.52297 0,0.30287 0.113718,0.52348 0.270268,0.52348 0.16303,0 0.322842,0.56166 0.402042,1.41335 0.13081,1.4071 0.302439,1.81126 0.768429,1.81126 0.13467,0 0.287314,-0.16489 0.339514,-0.36639 l 0.09508,-0.36639 0.05839,0.39791 c 0.0262,0.17823 0.0486,0.27723 0.146761,0.34417 0.0687,-0.67258 -0.248766,-1.40074 -0.561206,-1.99161 -0.41095,-0.823 -0.918987,-1.59766 -1.519287,-2.29495 2.20112,-1.22718 2.553657,-4.58569 0.776697,-6.32313 -0.96735,-1.0867 -2.47002,-1.36887 -3.86023,-1.32653 -0.90426,-0.0216 -1.809109,-0.0127 -2.713529,-0.005 -0.26924,-0.003 -0.553095,-0.0159 -0.839225,-0.0176 z"
       id="path135" /><path
       style="font-size:15.875px;line-height:0.7;font-family:'Arial Rounded MT Bold';-inkscape-font-specification:'Arial Rounded MT Bold, ';letter-spacing:2.4474px;word-spacing:-0.132291px;fill:#333333;stroke-linecap:round"
       d="m 115.23431,318.69114 v 5.2e-4 c -0.85974,-0.005 -1.74036,0.0886 -2.30735,0.81028 -0.83779,0.96678 -0.39722,2.33626 -0.51677,3.49126 0.007,2.57227 -0.0699,5.15429 0.0667,7.72046 0.0214,0.11304 0.0532,0.22095 0.093,0.32401 0.14095,-0.0586 0.27261,-0.0778 0.30903,-0.0191 0.10515,0.16933 0.73462,-0.78587 0.85163,-1.29242 0.12871,-0.55732 0.16346,-0.59069 0.59531,-0.57309 0.43311,0.0177 0.46056,-0.0101 0.48886,-0.50592 0.0165,-0.28879 0.1081,-0.64434 0.2036,-0.79013 0.1659,-0.25324 0.17621,-0.24499 0.24081,0.18914 0.0805,0.5409 0.39396,1.30926 0.45166,1.10742 0.0223,-0.0781 0.14921,-0.14159 0.28215,-0.14159 0.14796,0 0.26084,-0.21664 0.29094,-0.55862 0.0309,-0.35033 0.0797,-0.4425 0.13074,-0.2465 0.0448,0.17182 0.18561,0.31264 0.31316,0.31264 0.03,0 0.0595,-0.01 0.0873,-0.0253 -0.003,-0.24963 -1.7e-4,-0.49702 0.0253,-0.73587 -0.28614,-0.70741 0.47258,-0.34915 0.71262,-0.045 0.22792,0.25408 0.42758,0.52679 0.61237,0.80925 0.0271,0.008 0.0611,0.0155 0.0775,0.0253 0.0608,0.0364 0.14754,-0.37679 0.19224,-0.91829 0.0573,-0.69331 0.10294,-0.82225 0.15554,-0.43614 0.041,0.30154 0.18047,0.56477 0.30955,0.58497 0.12908,0.0202 0.24214,0.13967 0.25114,0.26562 0.009,0.12601 0.11057,0.26319 0.2248,0.30489 0.12508,0.0456 0.21449,-0.2453 0.22479,-0.73122 0.0111,-0.52763 0.10036,-0.79872 0.25838,-0.78342 0.13293,0.0129 0.24278,0.14582 0.2434,0.29559 0.002,0.46778 0.30471,1.12448 0.51883,1.12448 0.11265,0 0.20464,-0.16917 0.20464,-0.3762 0,-0.21011 0.10694,-0.38628 0.24184,-0.39998 0.14638,-0.0142 0.2545,-0.32494 0.2744,-0.78806 0.0181,-0.4205 0.0754,-0.73055 0.12713,-0.68885 0.0517,0.0417 0.20038,0.69762 0.33021,1.45779 0.21358,1.25054 0.53519,2.26014 0.73639,2.30994 0.10897,0.0269 0.29148,-0.76133 0.44907,-1.85364 -0.32806,-0.54704 -0.70338,-1.06667 -1.11363,-1.55132 2.20502,-1.22633 2.55294,-4.58879 0.77618,-6.32675 -0.9692,-1.08398 -2.47023,-1.36484 -3.85971,-1.32291 -0.90426,-0.0216 -1.80911,-0.0124 -2.71353,-0.005 -0.26968,-0.004 -0.55368,-0.017 -0.84026,-0.0186 z m 2.04535,3.79925 c 0.0963,0.002 0.20973,0.0216 0.34313,0.061 h 0.24857 c 0.49285,0.011 1.61652,-0.12122 1.42782,0.67955 -0.68182,0.53674 -1.66651,0.24282 -2.47634,0.32607 -0.0808,-0.58875 -0.0634,-1.07894 0.45682,-1.0666 z"
       id="path134" /><path
       style="font-size:15.875px;line-height:0.7;font-family:'Arial Rounded MT Bold';-inkscape-font-specification:'Arial Rounded MT Bold, ';letter-spacing:2.4474px;word-spacing:-0.132291px;fill:#333333;stroke-linecap:round"
       d="m 67.176261,318.68804 c -2.01284,0.0918 -4.040286,-0.0811 -6.047176,0.0817 -1.24879,0.27033 -1.894174,1.64312 -1.698604,2.83394 0.0297,2.95644 -0.06972,5.91903 0.06408,8.87129 0.0494,0.27663 0.157591,0.52052 0.304891,0.7338 0.13107,-1.00887 0.302335,-2.7721 0.451135,-4.73717 0.40354,-5.32935 0.519731,-5.95985 1.100191,-5.95985 v -5.1e-4 c 0.50666,0 0.723808,0.59256 0.977718,2.67167 0.17499,1.43287 0.3674,1.9982 0.70435,2.0655 0.25515,0.0509 0.523299,0.15361 0.595829,0.22841 0.21172,0.21807 1.053166,0.22417 1.053166,0.007 0,-0.10448 0.165773,-0.19017 0.368453,-0.19017 0.22096,0 0.368453,0.29317 0.368453,0.73174 0,0.40825 0.162763,0.75139 0.368453,0.77669 0.0991,0.0122 0.19019,0.13253 0.2651,0.32402 0.89906,0.0195 1.810151,0.0552 2.649451,-0.25063 1.45697,-0.70868 1.175898,-3.25926 -0.469222,-3.51969 -1.45866,-0.18657 -2.961923,-0.0328 -4.405933,-0.0899 -0.12201,-0.59847 0.178449,-0.79747 0.755509,-0.67386 1.45401,-0.0544 2.953288,0.16438 4.378028,-0.15917 1.52156,-0.54589 1.538704,-3.11167 -0.0677,-3.55327 -0.55253,-0.17908 -1.139975,-0.20223 -1.716175,-0.19172 z"
       id="path133" /><path
       style="font-size:15.875px;line-height:0.7;font-family:'Arial Rounded MT Bold';-inkscape-font-specification:'Arial Rounded MT Bold, ';letter-spacing:2.4474px;word-spacing:-0.132291px;fill:#333333;stroke-linecap:round"
       d="m 129.08101,318.68546 c -0.46583,0.005 -0.92723,0.0449 -1.37718,0.1726 -0.43979,0.14671 -0.78174,0.43232 -1.02371,0.79065 0.0605,-0.0418 0.12138,-0.0713 0.17984,-0.0713 v -0.002 c 0.10501,0 0.20406,0.65186 0.22066,1.44849 0.0179,0.85769 0.10916,1.37887 0.22375,1.27795 0.10643,-0.0937 0.22072,-0.67338 0.25322,-1.28777 l 0.0589,-1.11673 0.154,0.82269 c 0.0847,0.45243 0.22942,0.83413 0.32142,0.84853 0.092,0.0144 0.16692,-0.19811 0.16692,-0.47233 0,-0.41324 0.061,-0.49867 0.35501,-0.49867 0.28753,0 0.3695,-0.0844 0.4315,-0.44494 0.0421,-0.24471 0.0995,0.20336 0.12816,0.99581 0.0315,0.87376 0.14446,1.45554 0.28732,1.47794 0.12957,0.0203 0.26903,0.32601 0.30903,0.67955 0.0534,0.47165 0.0873,0.36802 0.12712,-0.38913 0.0298,-0.56754 0.14546,-1.03146 0.25787,-1.03146 0.18851,0 0.38911,0.44762 0.48886,1.01854 0.008,-0.16345 0.0848,-0.31095 0.24442,-0.35243 h 0.57723 c 0.46532,0.10397 1.1649,-0.13577 1.46296,0.30851 -0.0973,0.73658 -1.08694,0.43852 -1.59318,0.51005 -0.33897,0.1817 -0.56919,0.009 -0.65578,-0.22531 0.0104,0.09 0.019,0.18135 0.0238,0.27388 0.016,0.31239 0.0784,0.53796 0.13953,0.50126 0.0611,-0.0371 0.212,-0.0573 0.33486,-0.045 0.13047,0.0126 0.22324,0.62786 0.22324,1.47898 0,1.36688 0.026,1.45681 0.42272,1.44591 0.31244,-0.008 0.42391,0.0484 0.59789,0.35088 0.48789,0.0248 1.03884,0.136 0.9524,0.69557 -0.10895,0.25386 -0.31047,0.3805 -0.5519,0.44235 0.0692,0.30145 0.13182,0.62648 0.17208,0.93328 0.0936,0.71332 0.26251,1.29707 0.37569,1.29707 0.11319,0 0.22936,-0.37075 0.25786,-0.82372 0.0284,-0.45294 0.0791,-0.6276 0.11214,-0.38809 0.12516,0.90672 0.57886,1.86343 0.90847,1.91513 0.17611,0.0274 0.38744,0.0392 0.46974,0.0269 0.0823,-0.0128 0.14935,0.0234 0.14935,0.0801 0,0.0593 0.1033,0.0933 0.24184,0.0796 0.13877,-0.0135 0.25344,0.0285 0.27647,0.0997 2.26674,-1.23671 2.81795,-4.84902 0.74052,-6.52157 0.23309,-0.45685 0.65621,-1.07931 0.70332,-1.69705 0.36675,-1.89836 -0.90302,-3.92311 -2.8019,-4.35426 -0.9747,-0.28478 -2.00715,-0.23876 -3.01118,-0.22221 -0.77028,0.0542 -1.55887,-0.0358 -2.33526,-0.0279 z"
       id="path132" /><path
       style="font-size:15.875px;line-height:0.7;font-family:'Arial Rounded MT Bold';-inkscape-font-specification:'Arial Rounded MT Bold, ';letter-spacing:2.4474px;word-spacing:-0.132291px;fill:#333333;stroke-linecap:round"
       d="m 107.39086,318.52991 c -0.86496,-0.009 -1.72469,0.4303 -1.99988,1.32602 -0.447,1.38601 -0.0885,2.86112 -0.22531,4.28604 -0.0311,1.28828 0.21085,2.65417 -0.25734,3.88194 0.15819,-0.0144 0.30858,-0.24362 0.33848,-0.51574 l 0.0543,-0.48937 0.17673,0.37672 c 0.12311,0.26209 0.19308,0.068 0.23048,-0.6382 0.0341,-0.64377 0.15805,-1.01545 0.33848,-1.01545 0.1772,0 0.29961,0.27215 0.32401,0.72192 0.0216,0.39727 0.12606,1.10867 0.23203,1.58079 l 0.19275,0.85834 0.0522,-1.22215 c 0.0289,-0.67229 0.16708,-1.2323 0.30644,-1.2454 0.14248,-0.013 0.34799,0.35706 0.46922,0.84543 0.11859,0.47767 0.25116,0.84982 0.29456,0.82682 0.0433,-0.023 0.16264,-0.16899 0.2651,-0.32453 0.10251,-0.15552 0.30397,-0.28267 0.44804,-0.28267 0.15191,0 0.28767,0.49685 0.32297,1.18288 0.0335,0.65054 0.1009,0.97119 0.1509,0.7121 0.0428,-0.22223 0.10014,-0.362 0.16381,-0.42788 0.5453,-1.74969 0.2498,-3.7319 0.33073,-5.54333 -0.0499,-1.27201 0.18516,-2.6291 -0.30437,-3.83388 -0.37397,-0.69693 -1.14107,-1.05286 -1.90428,-1.0604 z"
       id="path131" /><path
       style="font-size:15.875px;line-height:0.7;font-family:'Arial Rounded MT Bold';-inkscape-font-specification:'Arial Rounded MT Bold, ';letter-spacing:2.4474px;word-spacing:-0.132291px;fill:#333333;stroke-linecap:round"
       d="m 100.03472,318.50717 c -0.0602,0.002 -0.120647,0.007 -0.180867,0.0145 -0.678311,0.0558 -1.197459,0.44908 -1.531689,0.98237 l 0.09198,0.89762 c 0.14874,1.45552 0.352395,2.40111 0.522965,2.42621 0.18301,0.0269 0.286624,-0.58711 0.299724,-1.77819 0.011,-1.00066 0.130063,-1.85714 0.264583,-1.90324 0.2682,-0.0918 0.384372,0.78961 0.381372,2.88923 -0.002,1.1575 0.008,1.18813 0.09767,0.28267 0.0616,-0.62704 0.207162,-1.01544 0.379822,-1.01544 0.1755,0 0.27957,0.38244 0.27957,1.02629 0,0.65603 0.10225,1.02578 0.28422,1.02578 0.17139,0 0.28474,0.17215 0.28474,0.43305 0,0.58734 0.31602,1.20194 0.60461,1.17564 0.12988,-0.0118 0.27441,0.32331 0.32091,0.74465 0.0689,0.62534 0.0958,0.5568 0.14832,-0.37465 0.0103,-0.18284 0.031,-0.34887 0.0563,-0.50126 -0.0488,-1.65581 0.17355,-3.34869 -0.18241,-4.97437 -0.33681,-0.85389 -1.21889,-1.38678 -2.12184,-1.35083 z"
       id="path58-79-7-0-6-4" /><path
       style="font-size:15.875px;line-height:0.7;font-family:'Arial Rounded MT Bold';-inkscape-font-specification:'Arial Rounded MT Bold, ';letter-spacing:2.4474px;word-spacing:-0.132291px;fill:#225500;stroke-linecap:round"
       d="m 77.180716,323.5411 c -0.009,8e-5 -0.0177,0.001 -0.0269,0.002 0.0904,0.0647 0.17157,0.0578 0.38137,0.005 -0.11934,-0.004 -0.23832,-0.007 -0.3545,-0.006 z"
       id="path109-1-8-9" /><path
       style="font-size:15.875px;line-height:0.7;font-family:'Arial Rounded MT Bold';-inkscape-font-specification:'Arial Rounded MT Bold, ';letter-spacing:2.4474px;word-spacing:-0.132291px;fill:#225500;stroke-linecap:round"
       d="m 98.140166,319.84878 c -0.2247,0.5115 -0.30331,1.10015 -0.21188,1.63711 0.0206,0.62601 0.0154,1.25511 0.005,1.88516 0.10477,-0.36919 0.16929,-1.22085 0.19121,-2.55644 z"
       id="path114-7-9" /><path
       style="font-size:15.875px;line-height:0.7;font-family:'Arial Rounded MT Bold';-inkscape-font-specification:'Arial Rounded MT Bold, ';letter-spacing:2.4474px;word-spacing:-0.132291px;fill:#ff00ff;stroke-linecap:round"
       d="m 72.450596,321.35083 c -0.002,0.30343 -0.002,0.60656 -0.004,0.91002 h 0.0207 c -0.008,-0.30245 -0.0144,-0.60605 -0.017,-0.91002 z"
       id="path19-3-0-5-3" /></g></svg>
